# xmcd
#
# Track frame offsets:
#	150
#	15432
#	30735
#	55300
#	75823
#	93255
#	115333
#	133192
#	149675
#	165928
#	181886
#	196433
#	210798
#	221607
#
# Disc length: 3269 seconds
#
# Revision: 0
# Processed by: cddbd v1.5.2PL0 Copyright (c) Steve Scherf et al.
# Submitted via: audiograbber 1.83.01
#
DISCID=b40cc30e
DTITLE=Gheorghe Zamfir - Gheorghe Zamfir And Friends CD2
DYEAR=2007
DGENRE=Easy Listening
TTITLE0=Pepe Solera - Irish Diamonds
TTITLE1=Edward Simoni - Green Green Grass Of Home
TTITLE2=Gheorghe Zamfir - Don't Cry For Me Argentina
TTITLE3=Daniela de Santos - Rain Over Kilimantscharo
TTITLE4=Pepe Solera - Solitario
TTITLE5=Ulrich Herkenhoff - Rose Of Ireland
TTITLE6=Edward Simoni - Hey Jude
TTITLE7=Gheorghe Zamfir - Unchained Melody
TTITLE8=Pepe Solera - King Of Pan
TTITLE9=Daniela de Santos - Avalona
TTITLE10=Friedbert Kerschbaumer - Natascha
TTITLE11=Pepe Solera - Fly Away Little Butterfly
TTITLE12=Edward Simoni - Feuertänzer
TTITLE13=Gheorghe Zamfir - My Heart Will Go On
EXTD=
EXTT0=
EXTT1=
EXTT2=
EXTT3=
EXTT4=
EXTT5=
EXTT6=
EXTT7=
EXTT8=
EXTT9=
EXTT10=
EXTT11=
EXTT12=
EXTT13=
PLAYORDER=
